<?xml version="1.0" encoding="UTF-8"?>
<svg width="1200pt" height="1200pt" version="1.1" viewBox="0 0 1200 1200" xmlns="http://www.w3.org/2000/svg">
 <g fill="#c8c8ca">
  <path d="m600 599.39c-48.609 0-88.172 28.875-88.172 64.359 0 33.094 34.5 60.141 78.562 63.656-1.1719 49.172-12.891 63.234-54.141 67.547-5.1562 0.5625-8.9062 5.1562-8.3438 10.312 0.51562 4.8281 4.5469 8.3906 9.3281 8.3906 0.32812 0 0.65625 0 0.98438-0.046875 34.031-3.5625 52.312-14.906 61.781-34.547 9.4688 19.641 27.75 30.984 61.781 34.594 0.32812 0.046875 0.65625 0.046875 0.98438 0.046875 4.7344 0 8.8125-3.5625 9.3281-8.3906 0.5625-5.1562-3.1875-9.75-8.3438-10.312-41.25-4.3594-52.969-18.375-54.141-67.547 44.062-3.5625 78.562-30.562 78.562-63.656 0-35.531-39.562-64.406-88.172-64.406zm0 110.02c-37.641 0-69.422-20.906-69.422-45.656s31.781-45.656 69.422-45.656 69.422 20.906 69.422 45.656-31.781 45.656-69.422 45.656z"/>
  <path d="m1151.9 111.47c-24.797-28.359-261.61-41.719-429.94 82.781-39.234-9.0938-80.016-14.062-121.97-14.062s-82.734 4.9688-121.97 14.062c-168.28-124.45-405.1-111.14-429.94-82.781-24.891 28.5-47.438 218.39 69.797 371.02-32.625 68.109-50.906 144.14-50.906 224.39 0 258.47 189.32 400.78 533.06 400.78s533.06-142.36 533.06-400.78c0-80.203-18.328-156.24-50.906-224.39 117.14-152.63 94.594-342.52 69.703-371.02zm-14.109 12.328c17.016 19.453 42.516 192.94-65.203 339.89-11.156-21.047-23.672-41.25-37.5-60.516 37.031-82.125 43.922-173.16 28.406-190.13-15.656-17.156-133.87-14.25-233.68 18.703-26.906-12.75-55.078-23.203-84.234-31.406 163.87-112.27 377.86-91.312 392.21-76.547zm-115.59 262.13c-45.375-58.125-102.66-106.73-168.28-142.03 93.422-27 184.82-25.266 195.56-18.422 6.4219 9.6562 5.7188 81.984-27.281 160.45zm-960-262.08c14.391-14.766 228.32-35.766 392.21 76.5-29.156 8.2031-57.328 18.656-84.234 31.406-99.844-32.953-218.02-35.859-233.72-18.703-15.469 16.969-8.5781 108 28.453 190.13-13.828 19.266-26.344 39.469-37.5 60.516-107.72-146.95-82.172-320.44-65.203-339.84zm283.87 120.05c-65.672 35.297-122.9 83.906-168.28 142.03-32.953-78.469-33.703-150.74-27.984-159.74 11.391-7.5469 102.89-9.2812 196.26 17.719zm768.24 462.94c0 332.39-322.22 382.03-514.31 382.03-192.1 0.046875-514.31-49.594-514.31-382.03 0-280.08 230.72-507.94 514.31-507.94 283.6 0.046875 514.31 227.9 514.31 507.94z"/>
  <path d="m906.1 672.47c0.46875 4.875 4.5469 8.5312 9.3281 8.5312 0.28125 0 0.5625 0 0.89062-0.046875l128.58-11.812c5.1562-0.46875 8.9531-5.0156 8.4844-10.219-0.46875-5.1562-4.875-8.9531-10.219-8.4844l-128.58 11.812c-5.1562 0.51562-8.9062 5.0625-8.4844 10.219z"/>
  <path d="m898.4 737.29c-0.5625 5.1562 3.1406 9.7969 8.2969 10.359l145.92 16.359c0.375 0.046875 0.70312 0.046875 1.0312 0.046875 4.7344 0 8.7656-3.5625 9.3281-8.3438 0.5625-5.1562-3.1406-9.7969-8.2969-10.359l-145.92-16.359c-5.0625-0.51562-9.75 3.1406-10.359 8.2969z"/>
  <path d="m1016.8 836.9-117.47-41.438c-4.875-1.6875-10.219 0.84375-11.953 5.7188s0.84375 10.266 5.7188 11.953l117.47 41.438c1.0312 0.375 2.1094 0.51562 3.1406 0.51562 3.8438 0 7.5-2.3906 8.8594-6.2344 1.6875-4.875-0.89062-10.219-5.7656-11.953z"/>
  <path d="m155.11 669.14 128.58 11.812c0.28125 0.046875 0.5625 0.046875 0.89062 0.046875 4.7812 0 8.8594-3.6562 9.3281-8.5312 0.46875-5.1562-3.3281-9.7031-8.4844-10.219l-128.58-11.812c-5.2031-0.375-9.7031 3.3281-10.219 8.4844-0.46875 5.2031 3.3281 9.75 8.4844 10.219z"/>
  <path d="m301.6 737.29c-0.5625-5.1562-5.1094-8.8125-10.359-8.2969l-145.92 16.359c-5.1562 0.5625-8.8594 5.2031-8.2969 10.359 0.5625 4.7812 4.5938 8.3438 9.3281 8.3438 0.32812 0 0.70312 0 1.0312-0.046875l145.92-16.359c5.1562-0.5625 8.8594-5.2031 8.2969-10.359z"/>
  <path d="m300.71 795.47-117.47 41.438c-4.875 1.7344-7.4531 7.0781-5.7188 11.953 1.3594 3.8438 4.9688 6.2344 8.8594 6.2344 1.0312 0 2.1094-0.1875 3.1406-0.51562l117.47-41.438c4.875-1.7344 7.4531-7.0781 5.7188-11.953-1.7812-4.875-7.0781-7.3594-12-5.7188z"/>
  <path d="m405.89 495.14c-32.344 0-58.688 26.344-58.688 58.688s26.344 58.688 58.688 58.688 58.688-26.344 58.688-58.688c0.046875-32.391-26.297-58.688-58.688-58.688zm0 98.625c-22.031 0-39.938-17.906-39.938-39.938s17.906-39.938 39.938-39.938 39.938 17.906 39.938 39.938c0.046875 22.031-17.906 39.938-39.938 39.938z"/>
  <path d="m405.89 535.08c-10.312 0-18.75 8.3906-18.75 18.75 0 10.312 8.3906 18.75 18.75 18.75 10.312 0 18.75-8.3906 18.75-18.75s-8.3906-18.75-18.75-18.75zm0 18.75v-9.375 9.375c0.046875 0 0 0 0 0z"/>
  <path d="m794.11 495.14c-32.344 0-58.688 26.344-58.688 58.688s26.344 58.688 58.688 58.688 58.688-26.344 58.688-58.688c0-32.391-26.344-58.688-58.688-58.688zm0 98.625c-22.031 0-39.938-17.906-39.938-39.938s17.906-39.938 39.938-39.938 39.938 17.906 39.938 39.938-17.953 39.938-39.938 39.938z"/>
  <path d="m794.11 535.08c-10.359 0-18.75 8.3906-18.75 18.75 0 10.312 8.3906 18.75 18.75 18.75 10.312 0 18.75-8.3906 18.75-18.75-0.046875-10.359-8.4375-18.75-18.75-18.75z"/>
 </g>
</svg>
