<?xml version="1.0" encoding="UTF-8"?>
<svg width="1200pt" height="1200pt" version="1.1" viewBox="0 0 1200 1200" xmlns="http://www.w3.org/2000/svg">
 <g fill="#4c25e0">
  <path d="m938.46 771.12c-15.805-15.805-36.816-24.504-59.172-24.504-4.0078 0-7.9805 0.27734-11.879 0.82812 18.805-32.051 14.461-74.039-13.008-101.52-15.805-15.805-36.816-24.504-59.172-24.504-3.9961 0-7.957 0.27734-11.844 0.82812 7.4766-12.707 11.461-27.215 11.461-42.348 0-22.355-8.6992-43.367-24.504-59.172-17.594-17.605-42.203-26.328-66.742-24.168l118.78-118.78c15.805-15.805 24.504-36.816 24.504-59.172s-8.6992-43.367-24.504-59.172c-15.805-15.805-36.816-24.504-59.172-24.504s-43.367 8.6992-59.172 24.504l-150.28 150.27-142.32-142.32c-39.84-39.84-104.68-39.852-144.52 0-39.84 39.84-39.84 104.68 0 144.52l142.32 142.32-102.56 102.56c-32.953 32.953-51.098 76.715-51.098 123.25 0 46.523 18.145 90.301 51.098 123.25l185.72 185.72c33.969 33.984 78.609 50.977 123.24 50.977 44.629 0 89.27-16.992 123.25-50.965l199.57-199.57c15.805-15.805 24.504-36.816 24.504-59.172s-8.6992-43.367-24.504-59.172zm-432.36 304.2-185.73-185.72c-29.281-29.293-45.406-68.184-45.406-109.54s16.129-80.258 45.406-109.55l397.37-397.37c12.527-12.527 28.992-18.805 45.457-18.805 16.465 0 32.93 6.2656 45.457 18.805 25.066 25.066 25.066 65.844 0 90.926l-156.66 156.64-131.28 131.29c-3.793 3.793-3.793 9.9258 0 13.715 1.8945 1.8945 4.3789 2.8438 6.8516 2.8438 2.4844 0 4.957-0.94922 6.8516-2.8438l131.29-131.29c12.145-12.145 28.285-18.828 45.457-18.828s33.312 6.6836 45.457 18.828c12.145 12.145 18.828 28.285 18.828 45.457s-6.6836 33.312-18.828 45.457l-131.28 131.28c-3.793 3.793-3.793 9.9258 0 13.715 1.8945 1.8945 4.3789 2.8438 6.8516 2.8438 2.4844 0 4.957-0.94922 6.8516-2.8438l110.71-110.71c12.145-12.145 28.285-18.828 45.457-18.828s33.312 6.6836 45.457 18.828c25.066 25.066 25.066 65.844 0 90.926l-110.71 110.71c-3.793 3.793-3.793 9.9258 0 13.715 1.8945 1.8945 4.3789 2.8438 6.8516 2.8438s4.957-0.94922 6.8516-2.8438l90.145-90.145c25.066-25.066 65.855-25.066 90.926 0 12.145 12.145 18.828 28.285 18.828 45.457 0 17.172-6.6836 33.312-18.828 45.457l-199.55 199.57c-60.406 60.395-158.68 60.395-219.08 0zm-108.38-794.21 142.32 142.32-117.1 117.1-142.32-142.32c-32.281-32.281-32.281-84.816 0-117.1 16.141-16.141 37.344-24.203 58.547-24.203 21.195-0.015625 42.414 8.0625 58.551 24.203z"/>
  <path d="m723.57 341.16c4.043 1.5 7.5586 3.7188 10.441 6.6133 2.8789 2.8789 5.1016 6.3945 6.6016 10.441 0.98437 2.6406 3.0703 4.7266 5.7109 5.7109 5.4961 2.0391 11.219 3.0352 16.906 3.0352 12.637 0 25.043-4.9219 34.223-14.113 18.898-18.898 18.898-49.645 0-68.531-18.887-18.898-49.645-18.898-68.531 0-13.32 13.32-17.664 33.383-11.074 51.133 0.99609 2.6406 3.0859 4.7266 5.7227 5.7109zm60.184-43.141c11.34 11.328 11.34 29.785 0 41.113-7.0547 7.043-17.293 9.8984-26.93 7.7148-2.3398-4.7891-5.3867-9.0859-9.1094-12.793-3.707-3.7188-8.0039-6.7695-12.793-9.1094-2.1719-9.6484 0.67188-19.883 7.7148-26.93 11.344-11.336 29.789-11.336 41.117 0.003906z"/>
  <path d="m546.86 272.4c1.2734 1.2734 2.8672 2.1484 4.5977 2.5547 0.75781 0.19141 1.5352 0.28906 2.3281 0.28906 2.5664 0 5.0391-1.0195 6.8516-2.8438l102.32-102.32c18.156-18.156 23.879-44.578 14.914-68.953-8.543-23.258-28.922-38.914-53.148-40.883-2.0391-0.15234-4.0898-0.23828-6.1797-0.23828-27.203 0-51.613 14.844-64.812 37.234-13.188-22.379-37.594-37.234-64.797-37.234-2.0742 0-4.1406 0.085938-6.1562 0.25391-24.254 1.9688-44.617 17.629-53.172 40.883-8.9531 24.371-3.2383 50.785 14.93 68.953zm-99.047-164.58c5.9883-16.32 19.656-26.867 36.551-28.246 1.5-0.12109 3.0352-0.17969 4.5703-0.17969 27.625 0 51.359 20.641 55.211 48.012 0.67187 4.7891 4.7656 8.3516 9.6016 8.3516s8.9297-3.5625 9.6016-8.3516c3.8516-27.371 27.59-48.012 55.211-48.012 1.5352 0 3.0703 0.058594 4.5859 0.17969 16.883 1.3672 30.539 11.93 36.539 28.246 6.3242 17.195 2.3281 35.797-10.43 48.539l-95.508 95.508-95.496-95.508c-12.754-12.742-16.762-31.344-10.438-48.539z"/>
 </g>
</svg>
