<?xml version="1.0" encoding="UTF-8"?>
<svg width="1200pt" height="1200pt" version="1.1" viewBox="0 0 1200 1200" xmlns="http://www.w3.org/2000/svg">
 <g fill="none" stroke="#4c25e0" stroke-linecap="round" stroke-linejoin="round" stroke-miterlimit="10">
  <path transform="scale(12)" d="m22.802 92.497s-0.125-4.625 0-8.625-0.875-8 0-11.75 0.5-3.25 0.625-7.5-1.75-10-1.625-15.75-1.512-4.375-0.005859-8.625c1.5059-4.25 5.1309-2 8.1309-2s4.625 0.125 6.625 0.125 4.125 0.125 4.125 3v8.75s-0.27311 3.2959-0.625 4.625c-0.375 1.417-4.5 1.375-3.875-4.75 0 0 0.16113-0.64095 0.43685-1.0618 0.13704-0.20898-2.4368-2.375-1.125-3.625 1.3132-1.25 0.68815-0.68815 0.68815-0.68815"/>
  <path transform="scale(12)" d="m26.552 47.684s4.5 0.56185 5.4368 0c0.93815-0.56185 1.5632-1.4788 0.93815-1.9382-0.88216-0.64714-3.5-2.5-3.5-2.5"/>
  <path transform="scale(12)" d="m32.927 45.747h1.958"/>
  <path transform="scale(12)" d="m40.339 53.583s0.46289 0.66406 1.5251 0.66406c1.0632 0 1.9382-0.18815 1.9382-1.5s-0.43815-2.5 0-4.25c0.43685-1.75 1.0618-4.5618 0.81185-8.0618s-0.375-3.25-0.31185-5.375c0.061849-2.125-0.875-3.25-3.625-3.4368s-7.4382 1.5-11.5 2.75"/>
  <path transform="scale(12)" d="m37.992 38.431 1.3721-1.4971"/>
  <path transform="scale(12)" d="m22.258 39.241s-0.58106-1.807 1.1061-3.307c1.6882-1.5 1.75-2.9382 5.0632-3.625 3.3118-0.68685 4.625-1.25 6.375-2s2.9368-1.1882 4.5618-1.6882 1.9382-1.25 3.875-1.4382c1.9382-0.18815 13.938 0 13.938 0s4.9189 0.66797 6.3118 0.56185c0.9821-0.058919 1.388-0.12695 2.0859 0.14811 0.65104 0.25586 1.2259 1.2269 0.28906 3.1641-1.193 2.4661-7.25 2.099-9.0618 2.112 0 0-6.75 0.63802-9.4382 0.63802l-1.75 0.18815-1.3118 0.75"/>
  <path transform="scale(12)" d="m32.427 30.872s2.1868-4.75 2.875-6.5c0.68685-1.75 0.88216-2.8118 2.6911-5.0618s3.2471-4.6882 3.8721-5.75c0 0 1.612-2.5 2.3678-3.5 0.75716-1 1.7572-1.875 2.444-2.9382 0.68685-1.0618 1.6868-2.1882 2.75-0.625 1.0618 1.5632 0.061849 4.875-1.8132 7.5632s-1.1361 2.375-2.943 5.75c-1.807 3.375-2.182 4.0618-2.182 4.0618l-1.8118 4.1882"/>
  <path transform="scale(12)" d="m42.225 24.482s1.4521-1.985 3.4521-1.5479c2 0.43685 2 1.583 2.125 4.167"/>
  <path transform="scale(12)" d="m47.802 33.997s-0.063151 7.25 0.5 8.1882c0.56185 0.93815 0.68685 3.5 0.68685 4.1882s0.18815 10.5-1.875 13.625c-2.0618 3.125-6.375 6.5618-6.4368 10.375-0.063151 3.8118-0.43815 3.25-0.31315 5.8118s-0.061849 7.9382 0.31315 10.75 0.5 7.125 0.5 8.0618"/>
 </g>
</svg>
