<?xml version="1.0" encoding="UTF-8"?>
<svg width="1200pt" height="1200pt" version="1.1" viewBox="0 0 1200 1200" xmlns="http://www.w3.org/2000/svg">
 <g fill="#c8c8ca">
  <path d="m264 971.04c18.305 10.625 39.605 14.898 60.59 12.164s40.48-12.324 55.449-27.281l67.68-67.922h392.28c38.191 0 74.816-15.172 101.82-42.176 27.004-27.008 42.176-63.633 42.176-101.82v-384c0-38.191-15.172-74.816-42.176-101.82-27.008-27.004-63.633-42.176-101.82-42.176h-120c-17.148 0-32.996 9.1484-41.57 24-8.5742 14.852-8.5742 33.148 0 48 8.5742 14.852 24.422 24 41.57 24h120c12.73 0 24.938 5.0586 33.941 14.059 9 9.0039 14.059 21.211 14.059 33.941v384c0 12.73-5.0586 24.938-14.059 33.941-9.0039 9-21.211 14.059-33.941 14.059h-392.28c-25.469-0.019531-49.898 10.082-67.918 28.078l-67.801 67.922v-168c0-17.148-9.1484-32.996-24-41.57-14.852-8.5742-33.148-8.5742-48 0-14.852 8.5742-24 24.422-24 41.57v164.76c-0.48047 35.246 17.797 68.102 48 86.277z"/>
  <path d="m412.08 480h-100.08c-13.586-0.066406-26.559 5.6289-35.711 15.672-9.1484 10.039-13.613 23.488-12.289 37.008 1.5117 12.129 7.4609 23.27 16.703 31.27 9.2383 8 21.117 12.293 33.336 12.051h165.96c25.461 0 49.879-10.113 67.883-28.117 18.004-18.004 28.117-42.422 28.117-67.883v-165.96c0.24219-12.219-4.0508-24.098-12.051-33.336-8-9.2422-19.141-15.191-31.27-16.703-13.52-1.3242-26.969 3.1406-37.008 12.289-10.043 9.1523-15.738 22.125-15.672 35.711v100.08l-182.04-182.04c-12.133-12.133-29.816-16.871-46.391-12.43-16.574 4.4414-29.52 17.387-33.961 33.961-4.4414 16.574 0.29688 34.258 12.43 46.391z"/>
 </g>
</svg>
